<svg xmlns="http://www.w3.org/2000/svg" version="1.0" width="1536.000000pt" height="1024.000000pt" viewBox="0 0 1536.000000 1024.000000" preserveAspectRatio="xMidYMid meet">

<g transform="translate(0.000000,1024.000000) scale(0.100000,-0.100000)" fill="#ffffff" stroke="none">
<path d="M5271 6449 c-144 -12 -276 -35 -411 -69 -259 -65 -427 -133 -830 -335 l-285 -143 -145 -16 c-298 -33 -604 -85 -740 -125 -230 -67 -444 -188 -600 -341 -67 -66 -90 -110 -90 -176 0 -16 -9 -81 -20 -144 -26 -150 -26 -170 0 -170 24 0 55 62 110 220 18 52 38 101 43 108 7 9 66 11 268 5 169 -4 259 -3 259 4 0 5 -37 24 -82 41 -145 55 -182 88 -137 123 210 164 844 338 1394 384 39 3 86 8 105 11 95 12 618 34 970 40 217 3 421 10 454 15 85 12 128 37 254 148 62 54 130 111 151 126 65 44 166 75 252 75 211 0 649 -97 969 -216 167 -61 176 -63 101 -14 -257 167 -739 328 -1226 410 -224 37 -579 56 -764 39z" fill="#ffffff"/>
<path d="M5984 6031 c-41 -10 -54 -20 -158 -129 l-90 -92 130 0 c71 0 158 5 194 11 82 13 182 62 288 141 66 50 79 64 65 70 -24 9 -389 8 -429 -1z" fill="#ffffff"/>
<path d="M7155 5849 c-27 -5 -133 -27 -235 -49 -102 -21 -239 -46 -305 -55 -139 -18 -454 -21 -760 -5 -444 22 -845 9 -1145 -36 -469 -70 -997 -260 -1338 -481 l-94 -60 64 -6 c34 -4 349 -9 698 -13 l635 -6 50 92 c88 162 203 254 353 282 81 15 194 -2 280 -42 69 -32 168 -120 198 -175 22 -42 20 -42 244 -20 85 8 234 22 330 30 96 8 281 25 410 37 l235 21 71 67 c182 172 466 269 706 241 121 -14 234 -50 335 -107 42 -24 78 -43 80 -41 1 2 -10 23 -25 48 -67 105 -249 219 -422 264 -77 20 -291 29 -365 14z m-2707 -446 c-35 -42 -75 -90 -90 -105 l-28 -29 -289 3 c-160 2 -287 6 -283 9 4 4 122 37 262 74 140 37 300 79 355 95 146 41 145 41 73 -47z" fill="#ffffff"/>
<path d="M11601 5384 c-91 -24 -147 -68 -176 -136 -33 -79 -6 -174 63 -221 75 -52 109 -61 237 -62 112 0 124 2 177 28 126 62 166 178 101 289 -56 96 -246 144 -402 102z m223 -89 c71 -34 97 -116 56 -182 -23 -38 -64 -61 -124 -69 -145 -20 -256 89 -201 196 37 72 175 100 269 55z" fill="#ffffff"/>
<path d="M8110 5179 l0 -211 183 4 c196 6 240 15 305 64 50 39 72 81 72 139 -1 73 -30 129 -85 164 -66 42 -122 51 -310 51 l-165 0 0 -211z m354 106 c40 -19 76 -66 76 -98 0 -42 -32 -86 -78 -108 -36 -18 -64 -23 -136 -23 l-91 -1 -3 129 -3 128 98 -4 c68 -3 110 -10 137 -23z" fill="#ffffff"/>
<path d="M8770 5180 l0 -211 62 3 62 3 -1 68 -1 67 67 0 66 1 65 -71 65 -71 74 3 73 3 -67 73 c-37 40 -66 74 -64 76 2 1 19 9 38 16 62 25 89 106 56 170 -9 17 -34 40 -58 52 -39 21 -58 23 -239 26 l-198 4 0 -212z m340 112 c61 -30 47 -85 -25 -102 -22 -5 -72 -10 -112 -10 l-72 0 -6 54 c-4 30 -4 59 0 65 11 19 175 14 215 -7z" fill="#ffffff"/>
<path d="M9400 5180 l0 -210 60 0 60 0 0 210 0 210 -60 0 -60 0 0 -210z" fill="#ffffff"/>
<path d="M9612 5381 c2 -5 53 -99 113 -210 l110 -200 77 -1 76 0 93 168 c50 92 103 186 117 210 l24 43 -72 -3 -73 -3 -78 -150 c-76 -145 -94 -171 -101 -143 -1 7 -37 77 -78 156 l-74 142 -69 0 c-38 0 -67 -4 -65 -9z" fill="#ffffff"/>
<path d="M10300 5180 l0 -210 235 0 235 0 0 40 0 40 -176 0 -175 0 3 48 3 47 140 2 140 2 3 36 3 35 -145 0 -146 0 0 45 0 45 175 0 175 0 0 40 0 40 -235 0 -235 0 0 -210z" fill="#ffffff"/>
<path d="M10890 5180 l0 -210 65 0 65 0 0 75 0 75 135 0 135 0 0 40 0 40 -135 0 -135 0 0 55 0 55 155 0 155 0 0 40 0 40 -220 0 -220 0 0 -210z" fill="#ffffff"/>
<path d="M12140 5181 l0 -211 65 0 65 0 0 70 0 70 64 0 63 0 62 -70 63 -70 74 0 c41 0 74 4 74 8 0 4 -29 37 -65 72 -36 35 -65 67 -65 71 0 4 14 9 31 13 47 9 89 60 89 108 0 59 -24 96 -78 121 -42 20 -67 22 -244 25 l-198 4 0 -211z m329 123 c59 -12 78 -79 29 -105 -22 -12 -198 -25 -220 -17 -9 4 -12 22 -10 67 l4 61 83 0 c45 0 97 -3 114 -6z" fill="#ffffff"/>
<path d="M12887 5293 c-73 -130 -152 -266 -173 -298 l-16 -25 70 0 71 0 27 50 27 50 127 0 127 0 23 -50 23 -50 69 0 c37 0 68 3 68 6 0 3 -35 69 -79 147 -43 78 -92 170 -110 205 l-31 62 -84 0 -84 0 -55 -97z m223 -145 c0 -5 -38 -8 -85 -8 -56 0 -85 4 -85 11 0 6 19 45 41 86 l41 75 44 -79 c24 -43 44 -81 44 -85z" fill="#ffffff"/>
<path d="M6105 5180 c-371 -18 -822 -63 -1120 -111 -358 -57 -901 -161 -1075 -204 -354 -89 -1017 -309 -1410 -468 -185 -75 -319 -141 -297 -145 10 -2 125 1 255 7 278 13 561 13 755 2 l139 -9 57 32 c273 155 880 384 1376 519 490 134 1080 236 1635 282 192 16 709 32 700 22 -3 -3 -84 -11 -180 -17 -720 -44 -1356 -162 -1950 -360 -372 -124 -892 -348 -1125 -483 l-69 -40 319 -54 c176 -29 329 -53 341 -53 11 0 81 38 156 84 526 326 1120 570 1756 721 396 93 981 163 1394 166 l153 1 -112 24 c-143 29 -277 49 -473 70 -184 18 -943 27 -1225 14z" fill="#ffffff"/>
</g>
</svg>