<?xml version="1.0" encoding="UTF-8"?>
<svg version="1.1" xmlns="http://www.w3.org/2000/svg" width="1024" height="1024">
<path d="M0 0 C1.80250416 2.38365572 2.97725888 4.96507119 4.1875 7.6875 C4.51685547 8.38294922 4.84621094 9.07839844 5.18554688 9.79492188 C5.83714659 11.18232406 6.47393179 12.57678704 7.09521484 13.97802734 C7.68156814 15.28838298 8.29512577 16.58703198 8.93994141 17.86962891 C10.96540321 22.04577958 11.43006477 24.57360904 10 29 C8.57999431 31.69713607 6.93898248 34.21485763 5.25 36.75 C-3.75438788 50.6945509 -8.59288669 62.55135279 -5.3515625 79.36328125 C-1.55674658 91.60723859 5.80849842 101.36218643 14 111 C30.85286236 131.03414544 44.45082258 152.07713051 52.9375 176.9375 C53.36180298 178.17886719 53.36180298 178.17886719 53.79467773 179.4453125 C62.44491575 206.17420271 59.63950381 235.17987453 47 260 C40.74737447 271.98540228 32.75843134 282.2969661 23.625 292.1875 C23.017771 292.84790283 22.41054199 293.50830566 21.78491211 294.1887207 C21.20878174 294.80062256 20.63265137 295.41252441 20.0390625 296.04296875 C19.52553223 296.58977295 19.01200195 297.13657715 18.48291016 297.69995117 C17 299 17 299 14 300 C14 300.66 14 301.32 14 302 C12.59814453 303.30932617 12.59814453 303.30932617 10.6328125 304.79296875 C9.91706055 305.33735596 9.20130859 305.88174316 8.46386719 306.44262695 C7.69204102 307.01843506 6.92021484 307.59424316 6.125 308.1875 C5.34286133 308.77684326 4.56072266 309.36618652 3.75488281 309.97338867 C-16.25781077 324.9953494 -37.60853512 337.34508453 -60.33935547 347.76635742 C-62.33497305 348.69165157 -64.32225761 349.63495322 -66.30517578 350.5871582 C-75.11987463 354.80656342 -84.06776014 358.47308164 -93.2026062 361.9390564 C-137.26537553 378.69123186 -179.8783172 397.40007933 -208 437 C-208.39074707 437.5357666 -208.78149414 438.0715332 -209.18408203 438.62353516 C-222.89803485 457.5159483 -232.67949171 478.91798796 -240 501 C-240.31662598 501.95132812 -240.63325195 502.90265625 -240.95947266 503.8828125 C-244.90846129 515.99166955 -247.85145639 528.26425023 -250.3125 540.75 C-250.55508545 541.9676001 -250.7976709 543.1852002 -251.04760742 544.43969727 C-254.53420472 562.96463328 -255.35356023 581.39144541 -255.30541992 600.2043457 C-255.30280965 602.88557059 -255.33075955 605.56509684 -255.36328125 608.24609375 C-255.34797112 609.4585099 -255.34797112 609.4585099 -255.33235168 610.69541931 C-255.40403981 614.8045804 -255.6822651 616.56193648 -258.16479492 619.98461914 C-263.24785275 623.59786657 -268.73568714 623.16595506 -274.77734375 623.203125 C-275.50691788 623.20882507 -276.236492 623.21452515 -276.98817444 623.22039795 C-278.5235959 623.22979688 -280.05903707 623.23636147 -281.59448242 623.24023438 C-283.927281 623.24995741 -286.25920381 623.28103494 -288.59179688 623.3125 C-290.09114066 623.31902999 -291.59049067 623.32428048 -293.08984375 623.328125 C-293.77860092 623.3404718 -294.46735809 623.3528186 -295.17698669 623.36553955 C-300.09081884 623.34322318 -303.7461289 622.47055623 -308 620 C-310.55306923 615.83925349 -311.37524933 612.69417998 -311.37854004 607.84532166 C-311.38674271 606.63266129 -311.39494537 605.42000092 -311.40339661 604.17059326 C-311.39417427 602.19497406 -311.39417427 602.19497406 -311.38476562 600.17944336 C-311.38887396 598.76796531 -311.39433639 597.35649066 -311.40104675 595.94502258 C-311.41274683 592.91337166 -311.41526513 589.88190267 -311.41069031 586.85023308 C-311.40386899 582.05538044 -311.41976769 577.2607664 -311.43908691 572.46595764 C-311.48012183 561.42437847 -311.49148786 550.38280615 -311.50261688 539.34116364 C-311.5131261 529.21643582 -311.52990234 519.09182292 -311.57071257 508.96716601 C-311.58906442 504.20162367 -311.59296303 499.43635503 -311.58577728 494.67078578 C-311.58425516 491.70632782 -311.59504056 488.74200678 -311.60915565 485.77758598 C-311.61506386 483.74968767 -311.60605518 481.72176307 -311.59660339 479.69387817 C-311.60480606 478.48403763 -311.61300873 477.27419708 -311.62145996 476.0276947 C-311.62217247 474.97819106 -311.62288498 473.92868742 -311.62361908 472.84738064 C-312.05501618 469.58379401 -313.21054801 467.72509461 -315 465 C-315 464.34 -315 463.68 -315 463 C-315.58523438 462.7225293 -316.17046875 462.44505859 -316.7734375 462.15917969 C-318.8863 461.05919381 -320.70783618 459.86142459 -322.625 458.453125 C-323.32109375 457.94523437 -324.0171875 457.43734375 -324.734375 456.9140625 C-325.48203125 456.36492187 -326.2296875 455.81578125 -327 455.25 C-333.61761787 450.42735691 -340.27971598 445.67848779 -347 441 C-354.35810652 435.87277073 -361.6541912 430.66760877 -368.9140625 425.40234375 C-373.34024739 422.19335971 -377.79369462 419.03121365 -382.28515625 415.9140625 C-385.25720704 413.81865978 -388.19809691 411.68324808 -391.13916016 409.54467773 C-398.41194953 404.26120562 -405.72703784 399.04452268 -413.125 393.9375 C-414.27826782 393.1338501 -414.27826782 393.1338501 -415.45483398 392.31396484 C-423.60802783 386.32275796 -423.60802783 386.32275796 -433.11328125 383.98828125 C-436.58931095 385.20653794 -439.28778355 386.97815134 -442.1875 389.1875 C-442.78062988 389.62529785 -443.37375977 390.0630957 -443.98486328 390.51416016 C-445.29098736 391.47964334 -446.5935694 392.44993177 -447.89306641 393.42431641 C-450.10995756 395.08223245 -452.34027427 396.72061267 -454.57421875 398.35546875 C-474.0249536 412.5459355 -474.0249536 412.5459355 -492.984375 427.37890625 C-493.98210937 428.18134766 -493.98210937 428.18134766 -495 429 C-495.66515625 429.58652344 -496.3303125 430.17304687 -497.015625 430.77734375 C-499 432 -499 432 -501.25 431.6875 C-501.8275 431.460625 -502.405 431.23375 -503 431 C-503.24234375 429.90300781 -503.4846875 428.80601562 -503.734375 427.67578125 C-504.0722153 426.22119109 -504.41079625 424.76677281 -504.75 423.3125 C-504.90726563 422.59126953 -505.06453125 421.87003906 -505.2265625 421.12695312 C-506.31335618 416.54987976 -507.5858086 413.42068226 -511 410 C-516.46517559 407.81392976 -522.1704205 407.36818397 -528 407 C-529.20849609 406.91878906 -529.20849609 406.91878906 -530.44140625 406.8359375 C-538.69943363 406.54432177 -547.56150336 407.54751835 -554.125 412.9375 C-557.47539521 416.06286867 -558.90272296 418.62822879 -559.23046875 423.25 C-559.21628906 424.4875 -559.20210937 425.725 -559.1875 427 C-559.18327026 427.99422974 -559.18327026 427.99422974 -559.17895508 429.00854492 C-559.1324898 433.17193389 -558.74335364 437.19170043 -558.1875 441.3125 C-557.63346439 447.67112407 -559.10511713 451.95662603 -563 457 C-567.40841547 461.36403545 -572.35123684 464.91810865 -577.5 468.3515625 C-578.08265625 468.7427124 -578.6653125 469.1338623 -579.265625 469.53686523 C-580.91461212 470.6308512 -582.58190054 471.69710239 -584.25 472.76171875 C-588.24420762 476.01268603 -589.73839206 479.28233346 -590.51199341 484.36164856 C-590.57007172 485.62780502 -590.62815002 486.89396149 -590.68798828 488.19848633 C-590.73804362 489.28654304 -590.73804362 489.28654304 -590.78911018 490.3965807 C-591.19328418 500.62286349 -591.07677571 510.86514494 -591.01403427 521.09674644 C-590.99173563 524.90131654 -590.97783968 528.70583498 -590.96633911 532.51045227 C-590.93298185 543.31392682 -590.89099428 554.11730716 -590.82861328 564.9206543 C-590.79037141 571.56027996 -590.76795867 578.19985009 -590.75430679 584.83957863 C-590.74626055 587.36057719 -590.73266305 589.88156445 -590.71337509 592.40250206 C-590.686928 595.91517011 -590.67900673 599.42743038 -590.67529297 602.94018555 C-590.6629361 603.9765918 -590.65057922 605.01299805 -590.6378479 606.08081055 C-590.65283996 611.45188406 -590.85975115 615.41591266 -594 620 C-599.01551959 623.34367972 -604.01318489 623.16828099 -609.8984375 623.203125 C-610.65162262 623.20882507 -611.40480774 623.21452515 -612.18081665 623.22039795 C-613.76929332 623.22981267 -615.3577892 623.23636784 -616.94628906 623.24023438 C-619.36037643 623.2499412 -621.773612 623.28099738 -624.1875 623.3125 C-625.73697416 623.31903119 -627.28645435 623.32428121 -628.8359375 623.328125 C-629.54970551 623.3404718 -630.26347351 623.3528186 -630.99887085 623.36553955 C-636.64419728 623.34077242 -641.52024466 622.43461825 -645.67155457 618.35887146 C-647.4938931 615.12301228 -647.43978068 612.14614129 -647.43237305 608.52856445 C-647.4425647 607.78165848 -647.45275635 607.0347525 -647.46325684 606.26521301 C-647.49342525 603.79782623 -647.50266515 601.33082846 -647.51171875 598.86328125 C-647.52857756 597.14176664 -647.54672942 595.42026424 -647.56611633 593.69877625 C-647.61366232 589.16325745 -647.64342143 584.62778798 -647.66955566 580.09210205 C-647.69918774 575.50205353 -647.74590002 570.91218332 -647.79101562 566.32226562 C-647.90893055 553.88193403 -648.02600281 541.44099921 -648 529 C-648.65484375 529.38857178 -649.3096875 529.77714355 -649.984375 530.17749023 C-652.98143125 531.94508671 -655.99040301 533.69134865 -659 535.4375 C-660.02996094 536.04916016 -661.05992187 536.66082031 -662.12109375 537.29101562 C-667.87052064 540.60517571 -672.32186635 542.81538813 -679 543 C-680.16984653 540.16194184 -679.98101465 538.93859763 -679.05761719 535.95214844 C-678.55907227 534.7665332 -678.06052734 533.58091797 -677.546875 532.359375 C-677.27381531 531.70322205 -677.00075562 531.04706909 -676.71942139 530.37103271 C-675.82704167 528.24105614 -674.91618645 526.1198369 -674 524 C-673.70295166 523.30946533 -673.40590332 522.61893066 -673.09985352 521.9074707 C-671.1913338 517.48179055 -669.25478177 513.06872912 -667.31085205 508.6585083 C-660.58227975 493.38227612 -654.04284038 478.03413338 -647.625 462.625 C-619.63628288 395.52637804 -619.63628288 395.52637804 -598 368 C-597.32066406 367.12730469 -596.64132812 366.25460937 -595.94140625 365.35546875 C-586.49653548 353.36987251 -586.49653548 353.36987251 -582 349 C-581.34 349 -580.68 349 -580 349 C-580 348.34 -580 347.68 -580 347 C-577.57127679 344.41718862 -574.73887142 342.24429524 -572 340 C-571.07832031 339.24203125 -570.15664063 338.4840625 -569.20703125 337.703125 C-553.16680298 324.93599781 -535.21699655 315.84625179 -516.94726562 306.72485352 C-515.76096054 306.12735794 -515.76096054 306.12735794 -514.5506897 305.51779175 C-513.06636806 304.77044086 -511.57893879 304.02921355 -510.08773804 303.29568481 C-501.63694738 299.02696776 -495.47036139 294.4390272 -491 286 C-490.62327148 285.30213379 -490.24654297 284.60426758 -489.85839844 283.88525391 C-489.08868811 282.44507675 -488.32409239 281.00215521 -487.56445312 279.55664062 C-482.66853294 270.31951042 -477.13799372 262.61111722 -470 255 C-468.78183594 253.66195312 -468.78183594 253.66195312 -467.5390625 252.296875 C-453.40830037 237.3886923 -434.56862938 227.75505304 -414.9375 222.3125 C-414.23753906 222.11003662 -413.53757812 221.90757324 -412.81640625 221.69897461 C-394.78897833 216.95689132 -375.8082382 217.73845005 -357.34521484 217.8626709 C-353.91180957 217.88349566 -350.4783727 217.89234114 -347.04492188 217.90234375 C-340.36320196 217.92414649 -333.68161819 217.95742317 -327 218 C-326.67 217.34 -326.34 216.68 -326 216 C-324.11857873 215.79475404 -322.23711733 215.58987019 -320.35546875 215.38671875 C-307.63753845 213.29870034 -295.86645181 204.45294991 -285.625 197.0625 C-266.02454496 182.96256791 -243.59051173 171.88788347 -219 171 C-217.98292969 170.96003906 -216.96585938 170.92007813 -215.91796875 170.87890625 C-189.602944 170.36764291 -164.23641628 176.3836308 -144 194 C-142.91405216 194.90649762 -141.82668888 195.81130102 -140.73828125 196.71484375 C-135.085887 201.44427171 -129.67198055 206.23980715 -124.5625 211.5625 C-110.49006566 225.86190909 -92.07863304 237.50367731 -71.66015625 238.9921875 C-59.67207185 239.0273948 -49.83497075 235.55915716 -40.8125 227.625 C-30.39708911 216.45796152 -26.45714555 201.70062009 -26.76171875 186.80859375 C-28.01988641 166.69853696 -35.55166987 148.61929096 -44.34228516 130.7043457 C-56.56582738 105.59134125 -64.55181432 76.38677948 -56.390625 48.7421875 C-52.26365978 37.63647771 -47.02980044 27.80316237 -39 19 C-38.4946875 18.40316406 -37.989375 17.80632812 -37.46875 17.19140625 C-29.77515005 8.69311855 -11.61398475 -6.12960306 0 0 Z M-214 261 C-216.10366586 266.20907736 -216.49742898 270.63330198 -215 276 C-212.51299244 280.78979235 -209.78979235 283.51299244 -205 286 C-198.74848672 287.53725737 -193.74134318 287.05111381 -188 284 C-184.4454634 280.90138971 -182.26977544 277.52969754 -181.76171875 272.765625 C-181.57844295 266.55354007 -182.13779444 262.9515456 -186 258 C-191.02219833 254.00274011 -195.04780802 253.42287525 -201.4140625 253.67578125 C-206.75959347 254.34599133 -210.71952556 256.78224715 -214 261 Z " fill="#68BCFE" transform="translate(760,176)"/>
<path d="M0 0 C1.19618958 0.01316757 2.39237915 0.02633514 3.62481689 0.03990173 C6.13944431 0.07218081 8.6540025 0.11033291 11.16845703 0.15405273 C15.01742068 0.21487212 18.8654862 0.23793052 22.71484375 0.25976562 C25.1640977 0.29586295 27.61331993 0.33419688 30.0625 0.375 C31.21151794 0.37734146 32.36053589 0.37968292 33.54437256 0.38209534 C41.48368612 0.57543416 41.48368612 0.57543416 45.46582031 3.51342773 C47.81445816 6.95705586 48.39045435 9.46490274 48.41279602 13.53486633 C48.41995132 14.43063385 48.42710663 15.32640137 48.43447876 16.24931335 C48.43716766 17.22963028 48.43985657 18.2099472 48.44262695 19.2199707 C48.44919815 20.25440308 48.45576935 21.28883545 48.46253967 22.35461426 C48.48227632 25.78328522 48.49393542 29.21191239 48.50390625 32.640625 C48.50798178 33.81086905 48.5120573 34.98111309 48.51625633 36.18681908 C48.53711748 42.37934569 48.55141968 48.57185014 48.56079102 54.7644043 C48.57186244 61.16368919 48.60627109 67.56262703 48.64596272 73.96178913 C48.67209162 78.88000643 48.68047951 83.79814052 48.68407249 88.71642113 C48.68894716 91.07553644 48.70058602 93.43464783 48.71911049 95.79369545 C48.74342442 99.0949224 48.7425508 102.39524436 48.7355957 105.6965332 C48.74840576 106.67077744 48.76121582 107.64502167 48.77441406 108.64878845 C48.7299305 114.441458 48.1608806 117.76181131 44.265625 122.15234375 C38.16895776 124.92491735 31.57577563 124.45846227 24.98046875 124.453125 C23.806017 124.45741013 22.63156525 124.46169525 21.42152405 124.46611023 C18.94630578 124.47183702 16.47107068 124.472366 13.99584961 124.46801758 C10.21243654 124.46485154 6.42980125 124.48835965 2.64648438 124.51367188 C0.23698015 124.51594443 -2.17252617 124.51664857 -4.58203125 124.515625 C-5.71028824 124.52483475 -6.83854523 124.53404449 -8.00099182 124.54353333 C-18.05069776 124.48437155 -18.05069776 124.48437155 -22.734375 121.15234375 C-25.33666332 118.24390045 -26.11026188 116.41647482 -26.12205505 112.52894592 C-26.13195969 111.60511612 -26.14186432 110.68128632 -26.15206909 109.72946167 C-26.14756744 108.72311676 -26.1430658 107.71677185 -26.13842773 106.67993164 C-26.14529099 105.61448624 -26.15215424 104.54904083 -26.15922546 103.4513092 C-26.17754226 99.92573763 -26.17364885 96.40060899 -26.16796875 92.875 C-26.17252821 90.42646642 -26.17783308 87.97793412 -26.18385315 85.52940369 C-26.19279388 80.39560754 -26.19035009 75.26196688 -26.18041992 70.12817383 C-26.1689296 63.54604995 -26.18913848 56.96446249 -26.21833706 50.3824091 C-26.23667452 45.32523687 -26.23641144 40.26819375 -26.23069954 35.21099663 C-26.23054602 32.78408493 -26.23661528 30.35716465 -26.24899101 27.9302845 C-26.26385212 24.53789654 -26.25325873 21.1465069 -26.23608398 17.75415039 C-26.24575195 16.74982971 -26.25541992 15.74550903 -26.26538086 14.71075439 C-26.21984815 10.42030453 -26.13183973 7.83872511 -23.95014954 4.07116699 C-17.6486172 -1.38585334 -7.84770073 -0.11356965 0 0 Z " fill="#67BCFE" transform="translate(315.734375,674.84765625)"/>
<path d="M0 0 C0.33 0 0.66 0 1 0 C1.00364563 1.08106018 1.00729126 2.16212036 1.01104736 3.27593994 C1.04797094 13.45844646 1.10571464 23.64064982 1.18390274 33.82292557 C1.22343056 39.05790724 1.255593 44.29271937 1.27099609 49.52783203 C1.28612774 54.57899787 1.32051105 59.62969775 1.36830902 64.68065643 C1.38315891 66.60874128 1.39104308 68.53689264 1.39188385 70.46503448 C1.39424443 73.16371987 1.42124988 75.86110798 1.45410156 78.55957031 C1.4490712 79.35870346 1.44404083 80.15783661 1.43885803 80.98118591 C1.50630712 84.55671973 1.698274 86.60094177 3.88525391 89.4934082 C6.42665565 91.3039589 7.88369703 91.53374871 10.984375 91.609375 C11.91894531 91.64160156 12.85351562 91.67382812 13.81640625 91.70703125 C15.26853516 91.72830078 15.26853516 91.72830078 16.75 91.75 C17.73355469 91.77964844 18.71710938 91.80929687 19.73046875 91.83984375 C22.15372776 91.91042411 24.57603154 91.96317701 27 92 C27 92.33 27 92.66 27 93 C23.06263877 93.08696177 19.12552372 93.14037835 15.1875 93.1875 C14.06794922 93.21263672 12.94839844 93.23777344 11.79492188 93.26367188 C10.72177734 93.27333984 9.64863281 93.28300781 8.54296875 93.29296875 C7.55321045 93.3086792 6.56345215 93.32438965 5.54370117 93.34057617 C2.52158516 92.93594503 1.86324857 92.34320413 0 90 C-0.28069811 87.06084395 -0.37872448 84.33608662 -0.34057617 81.39770508 C-0.34101425 80.51944565 -0.34145233 79.64118622 -0.34190369 78.73631287 C-0.33981201 75.83049363 -0.31646306 72.92524982 -0.29296875 70.01953125 C-0.28737415 68.00599991 -0.28310341 65.99246449 -0.28010559 63.97892761 C-0.26864616 58.676979 -0.23916945 53.37527657 -0.20599365 48.07342529 C-0.17531647 42.66421845 -0.16160528 37.25497187 -0.14648438 31.84570312 C-0.11430088 21.23036053 -0.06309119 10.61520073 0 0 Z " fill="#70C8FD" transform="translate(114,704)"/>
<path d="M0 0 C0 0.33 0 0.66 0 1 C-4.33539609 2.06122197 -8.56645019 2.16117843 -13.00390625 2.16796875 C-13.76420639 2.17129715 -14.52450653 2.17462555 -15.30784607 2.17805481 C-16.90891925 2.18309974 -18.51000286 2.18546389 -20.11108398 2.18530273 C-22.55795516 2.18749593 -25.00437994 2.20569531 -27.45117188 2.22460938 C-29.01041513 2.22754248 -30.56966052 2.22952783 -32.12890625 2.23046875 C-32.85815811 2.23765427 -33.58740997 2.24483978 -34.33876038 2.25224304 C-38.0553857 2.23553265 -40.84391023 2.06267353 -44 0 C-11.96196078 -1.62196078 -11.96196078 -1.62196078 0 0 Z " fill="#66B5F2" transform="translate(163,797)"/>
<path d="M0 0 C0.66 0 1.32 0 2 0 C2.5775 0.639375 3.155 1.27875 3.75 1.9375 C6.48382274 4.44350418 8.36785602 4.66980509 12 5 C12 5.33 12 5.66 12 6 C10.56344146 6.08131463 9.1255517 6.13933559 7.6875 6.1875 C6.48673828 6.23970703 6.48673828 6.23970703 5.26171875 6.29296875 C3 6 3 6 1.20703125 4.67578125 C0 3 0 3 0 0 Z " fill="#6FC4FA" transform="translate(291,791)"/>
<path d="M0 0 C0.66 0 1.32 0 2 0 C0.9024777 2.99324263 0.32317108 3.84610901 -2.625 5.25 C-3.40875 5.4975 -4.1925 5.745 -5 6 C-5.33 5.01 -5.66 4.02 -6 3 C-5.195625 2.690625 -4.39125 2.38125 -3.5625 2.0625 C-1.10919595 1.23664655 -1.10919595 1.23664655 0 0 Z " fill="#70C3FC" transform="translate(264,602)"/>
<path d="M0 0 C3 1 3 1 3 1 Z " fill="#70BDF7" transform="translate(424,392)"/>
<path d="" fill="#68A7D9" transform="translate(0,0)"/>
<path d="" fill="#6DBBFA" transform="translate(0,0)"/>
<path d="M0 0 C2 1 2 1 2 1 Z " fill="#6DBDFC" transform="translate(563,431)"/>
<path d="M0 0 C2 1 2 1 2 1 Z " fill="#6CBAF6" transform="translate(404,393)"/>
<path d="M0 0 C2 1 2 1 2 1 Z " fill="#6DBCF6" transform="translate(379,392)"/>
<path d="" fill="#6FBDF9" transform="translate(0,0)"/>
<path d="" fill="#63A5DD" transform="translate(0,0)"/>
<path d="" fill="#66ACE3" transform="translate(0,0)"/>
<path d="" fill="#66ADE5" transform="translate(0,0)"/>
<path d="" fill="#67ADE6" transform="translate(0,0)"/>
<path d="" fill="#66AEE5" transform="translate(0,0)"/>
<path d="" fill="#66B2F0" transform="translate(0,0)"/>
<path d="" fill="#6DB8F6" transform="translate(0,0)"/>
<path d="" fill="#6DBBFA" transform="translate(0,0)"/>
<path d="" fill="#6DBBF7" transform="translate(0,0)"/>
<path d="" fill="#6CB9F8" transform="translate(0,0)"/>
<path d="" fill="#6EBDFD" transform="translate(0,0)"/>
<path d="" fill="#6FBCFA" transform="translate(0,0)"/>
<path d="" fill="#6EBDF9" transform="translate(0,0)"/>
<path d="" fill="#6BB8EF" transform="translate(0,0)"/>
<path d="" fill="#6EBEFC" transform="translate(0,0)"/>
<path d="" fill="#6BB4ED" transform="translate(0,0)"/>
<path d="" fill="#6EBCFB" transform="translate(0,0)"/>
<path d="" fill="#70BAF5" transform="translate(0,0)"/>
<path d="" fill="#6AB7F5" transform="translate(0,0)"/>
<path d="" fill="#6FB9F6" transform="translate(0,0)"/>
<path d="" fill="#6EB6F4" transform="translate(0,0)"/>
<path d="" fill="#6DBAF7" transform="translate(0,0)"/>
<path d="" fill="#6CBDF9" transform="translate(0,0)"/>
<path d="" fill="#6DBFFD" transform="translate(0,0)"/>
<path d="" fill="#6CBCF9" transform="translate(0,0)"/>
<path d="" fill="#6EBCFB" transform="translate(0,0)"/>
<path d="" fill="#6FBDFB" transform="translate(0,0)"/>
<path d="" fill="#6CBDFA" transform="translate(0,0)"/>
<path d="" fill="#6CB6F0" transform="translate(0,0)"/>
<path d="" fill="#6ABCFB" transform="translate(0,0)"/>
<path d="" fill="#6DBEFA" transform="translate(0,0)"/>
<path d="" fill="#6DB8F4" transform="translate(0,0)"/>
<path d="" fill="#6AB8F4" transform="translate(0,0)"/>
<path d="" fill="#70B9F4" transform="translate(0,0)"/>
<path d="" fill="#6AB7F4" transform="translate(0,0)"/>
<path d="" fill="#6DB6F0" transform="translate(0,0)"/>
<path d="" fill="#6CB7F2" transform="translate(0,0)"/>
<path d="" fill="#6CB9F4" transform="translate(0,0)"/>
<path d="" fill="#6BB5F2" transform="translate(0,0)"/>
<path d="" fill="#6CBCF9" transform="translate(0,0)"/>
<path d="" fill="#71BDFA" transform="translate(0,0)"/>
<path d="" fill="#6DBEFC" transform="translate(0,0)"/>
<path d="" fill="#6DBEFB" transform="translate(0,0)"/>
<path d="" fill="#69B3ED" transform="translate(0,0)"/>
<path d="" fill="#6DB7EE" transform="translate(0,0)"/>
<path d="" fill="#6EBFFB" transform="translate(0,0)"/>
<path d="" fill="#6FB8F4" transform="translate(0,0)"/>
<path d="" fill="#6DB8F5" transform="translate(0,0)"/>
<path d="" fill="#6FB9F4" transform="translate(0,0)"/>
<path d="" fill="#6DB9F4" transform="translate(0,0)"/>
<path d="" fill="#6DBCF8" transform="translate(0,0)"/>
<path d="" fill="#6EBAF5" transform="translate(0,0)"/>
<path d="" fill="#6EB4EE" transform="translate(0,0)"/>
<path d="" fill="#6FBEFB" transform="translate(0,0)"/>
<path d="" fill="#6FB7F2" transform="translate(0,0)"/>
<path d="" fill="#6FBCF6" transform="translate(0,0)"/>
<path d="" fill="#6DBBF8" transform="translate(0,0)"/>
<path d="" fill="#6AB7F5" transform="translate(0,0)"/>
<path d="" fill="#71BCF5" transform="translate(0,0)"/>
<path d="" fill="#6EB9F4" transform="translate(0,0)"/>
<path d="" fill="#6FB9F3" transform="translate(0,0)"/>
<path d="" fill="#70B7F4" transform="translate(0,0)"/>
<path d="" fill="#6CB9F4" transform="translate(0,0)"/>
<path d="" fill="#6DB8F4" transform="translate(0,0)"/>
<path d="" fill="#6EBCF7" transform="translate(0,0)"/>
<path d="" fill="#6FB9F5" transform="translate(0,0)"/>
<path d="" fill="#6EBAF4" transform="translate(0,0)"/>
<path d="" fill="#6CB7F2" transform="translate(0,0)"/>
<path d="" fill="#6DB7F1" transform="translate(0,0)"/>
<path d="" fill="#6DBBFA" transform="translate(0,0)"/>
<path d="" fill="#69B6EF" transform="translate(0,0)"/>
<path d="" fill="#6DB2EA" transform="translate(0,0)"/>
<path d="" fill="#68ACE2" transform="translate(0,0)"/>
</svg>
